<svg width="27" height="45" viewBox="0 0 27 45" fill="none" xmlns="http://www.w3.org/2000/svg">
<path d="M25.035 29.7525C25.035 32.1225 24.36 34.0575 23.01 35.5575C21.675 37.0425 19.5375 38.0925 16.5975 38.7075L16.575 44.4H12.9525V39.2025C11.9475 39.2925 10.8525 39.3375 9.6675 39.3375V44.4H6.045V39.2475C4.11 39.1575 2.19 38.9925 0.285 38.7525V6.375C2.205 5.97 4.125 5.685 6.045 5.52V0.299999H9.6675V5.3175H10.41C11.385 5.3175 12.2325 5.3475 12.9525 5.4075V0.299999H16.575L16.5975 5.88C19.1625 6.45 21.0525 7.44 22.2675 8.85C23.4825 10.26 24.09 12.12 24.09 14.43C24.09 16.245 23.61 17.8125 22.65 19.1325C21.705 20.4525 20.3325 21.345 18.5325 21.81C20.6175 22.215 22.2225 23.1 23.3475 24.465C24.4725 25.815 25.035 27.5775 25.035 29.7525ZM11.1075 9.7725C9.3975 9.7725 7.7475 9.915 6.1575 10.2V19.6725H11.535C13.995 19.6725 15.7575 19.275 16.8225 18.48C17.8875 17.67 18.42 16.4175 18.42 14.7225C18.42 13.5375 18.18 12.585 17.7 11.865C17.22 11.145 16.4475 10.62 15.3825 10.29C14.3175 9.945 12.8925 9.7725 11.1075 9.7725ZM10.7475 34.8825C12.9225 34.8825 14.64 34.695 15.9 34.32C17.16 33.93 18.06 33.345 18.6 32.565C19.155 31.785 19.4325 30.7725 19.4325 29.5275C19.4325 27.6975 18.8625 26.3625 17.7225 25.5225C16.5825 24.6675 14.7525 24.24 12.2325 24.24H6.1575V34.6575C7.4025 34.8075 8.9325 34.8825 10.7475 34.8825Z" fill="#9EA8BE"/>
</svg>
