<svg width="63" height="25" viewBox="0 0 63 25" fill="none" xmlns="http://www.w3.org/2000/svg">
<path d="M50.657 18.7821L36.7847 24.9515L27.5139 15.012L41.3172 8.15723L50.657 18.7821Z" fill="#0B7CBB"/>
<path d="M29.8488 23.5463L20.3031 24.9516L11.4785 15.5948L22.4176 13.9844L29.8488 23.5463Z" fill="#0B7CBB"/>
<path d="M15.8006 4.25108C17.2197 1.63115 19.9535 0 22.9253 0H29.9964L18.784 20.7001C17.3649 23.32 14.6311 24.9512 11.6592 24.9512H4.58813L15.8006 4.25108Z" fill="#56637F"/>
<path d="M8.23314 18.224C9.65225 15.604 12.3861 13.9729 15.3579 13.9729H22.429L18.784 20.7001C17.3649 23.32 14.6311 24.9511 11.6592 24.9511H4.58813L8.23314 18.224Z" fill="#11A9FF"/>
<path d="M27.1476 12.3606C28.5713 9.75577 31.2834 8.15723 34.2442 8.15723H41.3176L34.468 20.7274C33.0443 23.3323 30.3188 24.9515 27.3579 24.9515H20.3035L27.1476 12.3606Z" fill="#11A9FF"/>
<path d="M1.06331 3.95019C2.5288 1.4995 5.16834 0 8.01674 0H15.3187L14.4373 1.47398C12.9718 3.92467 10.3323 5.42417 7.48386 5.42417H0.181885L1.06331 3.95019Z" fill="#56637F"/>
<path d="M31.8978 3.95019C33.3633 1.4995 36.0028 0 38.8512 0H46.1532L45.2718 1.47398C43.8063 3.92467 41.1668 5.42417 38.3184 5.42417H31.0164L31.8978 3.95019Z" fill="#56637F"/>
<path d="M47.986 4.25108C49.4051 1.63115 52.139 0 55.1108 0H62.1819L50.9695 20.7001C49.5504 23.32 46.8166 24.9512 43.8447 24.9512L36.7849 24.9515L47.986 4.25108Z" fill="#11A9FF"/>
</svg>
