<svg width="342" height="40" viewBox="0 0 342 40" fill="none" xmlns="http://www.w3.org/2000/svg">
<path d="M14.2597 33.0945C16.4936 33.0945 18.0259 32.5176 18.8572 31.3631H19.0648L19.1427 37.3579C18.2944 38.2018 16.7185 38.7617 14.4156 39.0376C13.7922 39.1236 13.0129 39.1665 12.078 39.1665C11.1601 39.1665 10.1559 38.9944 9.06477 38.6498C7.99127 38.3052 7.0737 37.7457 6.31172 36.9701C4.73579 35.3684 3.94815 32.8618 3.94815 29.4511V17.7203H0.0259787C0.00865343 17.2206 0 16.7124 0 16.1958V12.2163C0 11.9238 0.00865343 11.7772 0.0259787 11.7772H3.94815V4.41309H10.3115V11.7772H17.4545V17.7203H10.3115V28.2626C10.3115 30.9672 11.0648 32.5087 12.5715 32.8877C13.0562 33.0254 13.619 33.0945 14.2597 33.0945Z" fill="#11A9FF"/>
<path d="M30.5711 35.8856C30.5711 37.367 30.6057 38.3317 30.675 38.7797H24.2074V11.7778H30.5711V13.7673C32.0431 12.0965 33.584 11.2607 35.1946 11.2607C36.8222 11.2607 38.1036 11.459 39.0388 11.8553L38.571 18.806L38.4671 18.8835C37.8613 17.8154 36.6056 17.2814 34.7012 17.2814C33.9738 17.2814 33.2292 17.5311 32.4672 18.0308C31.7225 18.5131 31.0905 19.159 30.5711 19.9686V35.8856Z" fill="#11A9FF"/>
<path d="M60.13 37.1775C57.6711 38.5041 55.4458 39.1671 53.4547 39.1671C51.4633 39.1671 49.7575 38.9861 48.3378 38.6245C46.9178 38.2456 45.7144 37.6942 44.7275 36.9707C42.7188 35.5067 41.7142 33.3876 41.7142 30.6143C41.7142 28.1339 42.944 26.0668 45.4028 24.413C48.0692 22.6214 51.6882 21.7258 56.2598 21.7258L57.2986 21.7517C57.5065 21.7687 57.7404 21.786 57.9999 21.803C58.2598 21.803 58.4934 21.8204 58.7013 21.8547C58.563 19.0988 57.3679 17.4882 55.117 17.0229C54.3723 16.8681 53.576 16.7906 52.7274 16.7906C51.8961 16.7906 51.0735 16.8681 50.2599 17.0229C49.4633 17.1607 48.684 17.3505 47.9223 17.5913C46.2424 18.1253 45.039 18.7369 44.3117 19.4261L44.234 19.3744L43.4548 13.6639C46.5197 12.0618 49.8701 11.2607 53.5064 11.2607C59.1517 11.2607 62.7621 13.285 64.3377 17.3331C64.8398 18.625 65.091 20.0805 65.091 21.7V31.0538C65.091 33.0518 65.801 34.4128 67.221 35.1363L62.5195 39.4256C61.5326 38.9089 60.736 38.1595 60.13 37.1775ZM58.7273 26.506C58.2598 26.4199 57.7751 26.3767 57.273 26.3767H56.2338C52.4072 26.3767 49.974 27.221 48.9352 28.9091C48.6233 29.4085 48.4677 29.934 48.4677 30.4851C48.4677 31.0364 48.5627 31.5273 48.7533 31.9579C48.9612 32.3715 49.2987 32.7161 49.7661 32.9916C50.6667 33.5083 52.0001 33.7668 53.7662 33.7668C55.5497 33.7668 57.2123 33.3447 58.7533 32.5008C58.7359 32.3113 58.7273 32.113 58.7273 31.9062V26.506Z" fill="#11A9FF"/>
<path d="M91.8445 37.3316C89.6455 38.5548 87.4462 39.166 85.2472 39.166C83.0479 39.166 81.1259 38.8215 79.481 38.1327C77.8361 37.4435 76.4334 36.4962 75.2732 35.2904C72.8834 32.8096 71.6886 29.5884 71.6886 25.6267C71.6886 21.5265 73.0739 18.1158 75.8447 15.3942C78.6323 12.638 82.1997 11.26 86.546 11.26C87.8794 11.26 89.1867 11.4322 90.4678 11.7767V0.27832H96.8315V27.9002C96.8315 30.1915 96.9355 31.6902 97.143 32.3964C97.3683 33.1025 97.6108 33.6195 97.8704 33.9468C98.1476 34.274 98.4937 34.5842 98.9095 34.8767L94.0265 39.166C93.1259 38.6837 92.3986 38.0721 91.8445 37.3316ZM86.468 33.2233C87.9223 33.2233 89.2557 32.9474 90.4678 32.3964V18.0814C89.2557 17.5818 87.94 17.3321 86.52 17.3321C85.1 17.3321 83.8792 17.5215 82.8574 17.9005C81.8532 18.2794 80.9873 18.8049 80.2603 19.4767C78.7363 20.8894 77.9743 22.7238 77.9743 24.9804C77.9743 27.4438 78.667 29.4078 80.0524 30.8718C81.5417 32.4395 83.68 33.2233 86.468 33.2233Z" fill="#11A9FF"/>
<path d="M103.039 25.4981C103.039 23.4827 103.385 21.6139 104.078 19.8911C104.771 18.1685 105.751 16.6613 107.014 15.3694C109.716 12.6302 113.248 11.2607 117.612 11.2607C121.3 11.2607 124.259 12.4754 126.495 14.9041C128.694 17.2471 129.793 20.1928 129.793 23.7412C129.793 25.1022 129.69 26.0321 129.48 26.5318C127.747 27.0142 124.226 27.2553 118.908 27.2553H109.766C110.216 29.0986 111.265 30.5368 112.911 31.5705C114.554 32.5869 116.693 33.095 119.325 33.095C122.077 33.095 124.442 32.6039 126.415 31.6222C126.934 31.3637 127.324 31.1225 127.584 30.8987C127.551 31.6222 127.507 32.363 127.454 33.1209L127.168 37.1517C125.852 38.0473 123.723 38.6674 120.781 39.012C119.914 39.1154 119.081 39.1671 118.285 39.1671C113.887 39.1671 110.252 37.8925 107.377 35.3431C104.485 32.7763 103.039 29.4946 103.039 25.4981ZM122.883 22.2425C122.173 18.539 120.148 16.6872 116.806 16.6872C114.174 16.6872 112.175 17.8154 110.805 20.072C110.389 20.7612 110.069 21.519 109.846 22.3459C110.259 22.3629 110.772 22.3803 111.378 22.3976H113.297C113.94 22.4146 114.554 22.4235 115.143 22.4235H116.623C117.505 22.4235 118.372 22.4146 119.221 22.3976L121.35 22.3201C121.923 22.3027 122.433 22.2769 122.883 22.2425Z" fill="#11A9FF"/>
<path d="M288.698 38.7779C288.855 37.7272 288.931 36.7969 288.931 35.9873C288.931 35.1774 288.921 34.6264 288.905 34.3335C288.905 34.0236 288.898 33.7219 288.878 33.4291C288.861 33.1365 288.845 32.8607 288.828 32.6025L288.748 31.9565H296.281C296.231 32.611 296.205 33.145 296.205 33.5583L296.151 34.6437C296.151 34.971 296.151 35.5911 296.151 36.504C296.151 37.4 296.195 38.1578 296.281 38.7779H288.698Z" fill="#11A9FF"/>
<path d="M137.436 29.8834C137.593 28.8327 137.669 27.9024 137.669 27.0928C137.669 26.2829 137.659 25.7319 137.643 25.439C137.643 25.1291 137.636 24.8274 137.616 24.5345C137.599 24.242 137.583 23.9661 137.566 23.708L137.486 23.062H155.2C155.15 23.7165 155.123 24.2505 155.123 24.6638L155.07 25.7492C155.07 26.0764 155.07 26.6965 155.07 27.6095C155.07 28.5055 155.113 29.2633 155.2 29.8834H137.436Z" fill="#11A9FF"/>
<path d="M308.932 35.8823C308.932 37.3636 308.966 38.3283 309.036 38.7763H302.439V11.7744H308.932V35.8823Z" fill="#11A9FF"/>
<path d="M314.306 25.4209C314.306 23.5259 314.629 21.717 315.269 19.9945C315.925 18.2546 316.862 16.7389 318.074 15.447C320.723 12.6564 324.162 11.2607 328.386 11.2607C332.594 11.2607 335.936 12.5785 338.412 15.2143C340.784 17.7294 341.97 20.9938 341.97 25.0073C341.97 29.0211 340.75 32.3457 338.308 34.9812C335.729 37.7718 332.308 39.1671 328.05 39.1671C323.648 39.1671 320.203 37.7976 317.711 35.0587C315.442 32.561 314.306 29.3483 314.306 25.4209ZM320.62 25.2658C320.62 26.3509 320.803 27.4019 321.166 28.418C321.529 29.4343 322.049 30.3044 322.722 31.0279C324.162 32.5954 326.047 33.3791 328.386 33.3791C330.552 33.3791 332.258 32.6127 333.504 31.0796C334.713 29.598 335.32 27.6689 335.32 25.2916C335.32 22.88 334.697 20.9333 333.45 19.4519C332.118 17.8672 330.289 17.0746 327.97 17.0746C325.614 17.0746 323.772 17.9189 322.439 19.607C321.226 21.1574 320.62 23.0436 320.62 25.2658Z" fill="#11A9FF"/>
<path d="M167.918 31.312C167.918 35.188 167.988 37.6772 168.124 38.7796H161.348V11.7778H167.918V14.103C170.29 12.2084 172.722 11.2607 175.218 11.2607C178.16 11.2607 180.299 12.5271 181.631 15.0592C182.964 13.6983 184.074 12.8026 184.956 12.372C186.429 11.6312 187.902 11.2607 189.371 11.2607C190.86 11.2607 192.126 11.5107 193.166 12.0101C194.202 12.5098 195.062 13.2159 195.735 14.1289C197.104 15.9722 197.787 18.5043 197.787 21.7258V32.0096C197.787 34.921 197.83 36.6694 197.917 37.2551C198.004 37.8408 198.117 38.2198 198.257 38.3919C198.41 38.5643 198.54 38.7194 198.647 38.8572L198.593 38.9603C197.207 38.8399 196.188 38.7796 195.528 38.7796H193.579C192.939 38.7796 192.153 38.8055 191.217 38.8572V24.878C191.217 20.8472 190.594 18.4529 189.348 17.6947C188.931 17.4535 188.438 17.3331 187.865 17.3331C187.312 17.3331 186.819 17.4018 186.386 17.5396C185.953 17.6603 185.546 17.8671 185.166 18.16C184.523 18.625 183.797 19.538 182.984 20.8989C183.001 21.0367 183.007 21.1744 183.007 21.3122C183.007 21.45 183.007 23.7239 183.007 28.1339C183.007 32.5437 183.114 36.0925 183.321 38.7796C181.848 38.7796 180.592 38.7796 179.556 38.7796C178.533 38.7796 177.553 38.8055 176.62 38.8572V24.8522C176.62 22.0445 176.447 20.2183 176.101 19.3744C175.771 18.5304 175.414 17.9791 175.034 17.7206C174.655 17.4624 174.185 17.3331 173.632 17.3331C171.346 17.3331 169.44 18.427 167.918 20.6146V31.312Z" fill="white"/>
<path d="M223.242 37.1775C220.783 38.5041 218.558 39.1671 216.569 39.1671C214.576 39.1671 212.87 38.9864 211.451 38.6245C210.032 38.2456 208.829 37.6942 207.839 36.9707C205.83 35.5067 204.827 33.3876 204.827 30.6143C204.827 28.1339 206.057 26.0668 208.516 24.413C211.181 22.6214 214.803 21.7258 219.374 21.7258L220.413 21.7517C220.62 21.7687 220.853 21.786 221.113 21.803C221.373 21.803 221.606 21.8204 221.813 21.8547C221.676 19.0988 220.48 17.4882 218.231 17.0229C217.485 16.8681 216.689 16.7906 215.839 16.7906C215.009 16.7906 214.186 16.8681 213.373 17.0229C212.577 17.1607 211.797 17.3505 211.034 17.5913C209.355 18.1253 208.153 18.7369 207.426 19.4261L207.346 19.3744L206.567 13.6639C209.632 12.0618 212.984 11.2607 216.619 11.2607C222.266 11.2607 225.874 13.285 227.45 17.3331C227.953 18.625 228.203 20.0805 228.203 21.7V31.0538C228.203 33.0518 228.913 34.4128 230.335 35.1363L225.631 39.4256C224.645 38.9089 223.849 38.1595 223.242 37.1775ZM221.839 26.506C221.373 26.4199 220.887 26.3767 220.387 26.3767H219.347C215.519 26.3767 213.087 27.221 212.047 28.9091C211.737 29.4085 211.581 29.934 211.581 30.4851C211.581 31.0364 211.678 31.5273 211.867 31.9579C212.074 32.3715 212.411 32.7161 212.88 32.9916C213.78 33.5083 215.113 33.7668 216.878 33.7668C218.664 33.7668 220.327 33.3447 221.866 32.5008C221.849 32.3113 221.839 32.113 221.839 31.9062V26.506Z" fill="white"/>
<path d="M248.387 33.0945C250.619 33.0945 252.152 32.5176 252.981 31.3631H253.191L253.268 37.3579C252.422 38.2018 250.846 38.7617 248.54 39.0376C247.917 39.1236 247.138 39.1665 246.205 39.1665C245.285 39.1665 244.282 38.9944 243.189 38.6498C242.117 38.3052 241.2 37.7457 240.437 36.9701C238.861 35.3684 238.075 32.8618 238.075 29.4511V17.7203H234.15C234.134 17.2206 234.127 16.7124 234.127 16.1958V12.2163C234.127 11.9238 234.134 11.7772 234.15 11.7772H238.075V4.41309H244.439V11.7772H251.582V17.7203H244.439V28.2626C244.439 30.9672 245.192 32.5087 246.698 32.8877C247.181 33.0254 247.744 33.0945 248.387 33.0945Z" fill="white"/>
<path d="M257.27 25.4981C257.27 23.4827 257.616 21.6139 258.309 19.8911C259.002 18.1685 259.978 16.6613 261.245 15.3694C263.943 12.6302 267.478 11.2607 271.84 11.2607C275.528 11.2607 278.49 12.4754 280.725 14.9041C282.921 17.2471 284.021 20.1928 284.021 23.7412C284.021 25.1022 283.917 26.0321 283.711 26.5318C281.978 27.0142 278.457 27.2553 273.139 27.2553H263.997C264.446 29.0986 265.496 30.5368 267.138 31.5705C268.784 32.5869 270.923 33.095 273.555 33.095C276.308 33.095 278.673 32.6039 280.645 31.6222C281.165 31.3637 281.555 31.1225 281.815 30.8987C281.782 31.6222 281.738 32.363 281.685 33.1209L281.399 37.1517C280.082 38.0473 277.953 38.6674 275.008 39.012C274.142 39.1154 273.312 39.1671 272.516 39.1671C268.118 39.1671 264.48 37.8925 261.608 35.3431C258.716 32.7763 257.27 29.4946 257.27 25.4981ZM277.114 22.2425C276.404 18.539 274.378 16.6872 271.037 16.6872C268.405 16.6872 266.402 17.8154 265.036 20.072C264.62 20.7612 264.3 21.519 264.073 22.3459C264.49 22.3629 264.999 22.3803 265.606 22.3976H267.528C268.168 22.4146 268.784 22.4235 269.374 22.4235H270.853C271.736 22.4235 272.603 22.4146 273.452 22.3976L275.581 22.3201C276.151 22.3027 276.664 22.2769 277.114 22.2425Z" fill="white"/>
<path d="M302.698 0C302.515 2.03902 302.525 4.23351 302.725 6.5834L309.365 6.3889L309.242 3.21033C309.215 2.20944 309.218 1.16696 309.248 0.0828855L302.698 0Z" fill="#11A9FF"/>
</svg>
