<svg width="200" height="79" viewBox="0 0 200 79" fill="none" xmlns="http://www.w3.org/2000/svg">
<path d="M35.5949 13.4378C40.1 5.15612 48.7787 0 58.2132 0H80.6611L45.0662 65.4338C40.5611 73.7155 31.8824 78.8716 22.4479 78.8716H0L35.5949 13.4378Z" transform="translate(17.1621)" fill="#11A9FF"/>
<path d="M11.5714 13.4378C16.0766 5.15612 24.7553 0 34.1898 0H56.6377L45.0662 21.2649C40.5611 29.5466 31.8824 34.7027 22.4479 34.7027H0L11.5714 13.4378Z" transform="translate(17.1621 44.1685)" fill="white"/>
<path d="M21.8462 13.3525C26.3658 5.1184 35.0182 0 44.4179 0H66.9315L45.0854 39.8001C40.5657 48.0342 31.9133 53.1526 22.5137 53.1526H0L21.8462 13.3525Z" transform="translate(66.9346 25.7201)" fill="white"/>
<path d="M2.79819 12.4867C7.45053 4.73998 15.83 0 24.8725 0H48.0534L45.2552 4.65932C40.6029 12.406 32.2234 17.146 23.1809 17.146H0L2.79819 12.4867Z" transform="translate(101.254)" fill="#11A9FF"/>
<path d="M2.79819 12.4867C7.45053 4.73998 15.83 0 24.8725 0H48.0534L45.2552 4.65932C40.6029 12.406 32.2234 17.146 23.1809 17.146H0L2.79819 12.4867Z" fill="#11A9FF"/>
<path d="M35.5949 13.4378C40.1 5.15612 48.7787 0 58.2132 0H80.6611L45.0662 65.4338C40.5611 73.7155 31.8824 78.8716 22.4479 78.8716H0L35.5949 13.4378Z" transform="translate(119.339)" fill="white"/>
</svg>
