<svg width="244" height="110" viewBox="0 0 244 110" fill="none" xmlns="http://www.w3.org/2000/svg">
<path d="M198.645 73.7872L144.051 98.0241L107.565 58.9761L161.888 32.0465L198.645 73.7872Z" fill="#C3C8D7"/>
<path d="M116.755 92.503L79.1876 98.0238L44.4585 61.2649L87.5092 54.9384L116.755 92.503Z" fill="#C3C8D7"/>
<path d="M61.4672 16.7007C67.0521 6.40809 77.8109 0 89.5064 0H117.335L73.2084 81.3218C67.6235 91.6143 56.8647 98.0226 45.1688 98.0226H17.3408L61.4672 16.7007Z" fill="#11A9FF"/>
<path d="M31.6857 71.5939C37.2706 61.3011 48.0295 54.8932 59.725 54.8932H87.5532L73.2084 81.3215C67.6235 91.6139 56.8647 98.0218 45.1688 98.0218H17.3408L31.6857 71.5939Z" fill="white"/>
<path d="M106.123 48.5595C111.726 38.3262 122.399 32.0463 134.052 32.0463H161.889L134.932 81.4291C129.329 91.6626 118.603 98.0238 106.951 98.0238H79.1881L106.123 48.5595Z" fill="white"/>
<path d="M3.46885 15.5186C9.23627 5.89089 19.6241 0 30.834 0H59.5706L56.1019 5.79064C50.3344 15.4183 39.9467 21.3092 28.7368 21.3092H0L3.46885 15.5186Z" fill="#11A9FF"/>
<path d="M124.817 15.5186C130.585 5.89089 140.973 0 152.182 0H180.919L177.451 5.79064C171.683 15.4183 161.295 21.3092 150.086 21.3092H121.349L124.817 15.5186Z" fill="#11A9FF"/>
<path d="M188.133 16.7007C193.718 6.40809 204.476 0 216.172 0H244L199.874 81.3218C194.289 91.6143 183.53 98.0226 171.834 98.0226L144.051 98.0238L188.133 16.7007Z" fill="white"/>
</svg>
