<svg width="30" height="45" viewBox="0 0 30 45" fill="none" xmlns="http://www.w3.org/2000/svg">
<path d="M12.864 43.8H16.704V39.48C23.904 38.856 27.072 34.584 27.072 29.688C27.072 23.256 21.696 21.384 16.704 20.04V11.784C19.056 12.264 21.312 13.368 23.136 15.144L26.352 10.968C23.856 8.568 20.592 7.08 16.704 6.648V2.136H12.864V6.6C6.672 7.128 2.688 10.968 2.688 15.864C2.688 22.152 7.92 23.928 12.864 25.176V34.44C9.36 33.912 6.624 32.136 4.8 30.168L1.68 34.488C4.176 37.224 7.872 39.096 12.864 39.48V43.8ZM21.36 30.216C21.36 32.04 20.016 33.96 16.704 34.488V26.184C19.344 27 21.36 28.056 21.36 30.216ZM8.448 15.48C8.448 13.368 10.128 11.832 12.864 11.544V19.032C10.32 18.312 8.448 17.352 8.448 15.48Z" fill="#9EA8BE"/>
</svg>
